<svg width="1678" height="1024" viewBox="0 0 1678 1024" fill="none" xmlns="http://www.w3.org/2000/svg">
<g clip-path="url(#clip0_827_7894)">
<rect width="1678" height="1024" fill="#FBFBFB"/>
<path d="M142.134 132.079L147.509 132.193L147.437 135.36L137.959 135.16L138.342 118.317L142.445 118.403L142.134 132.079ZM155.485 135.722C154.173 135.694 152.996 135.389 151.952 134.807C150.925 134.225 150.12 133.408 149.535 132.355C148.967 131.303 148.699 130.081 148.73 128.69C148.762 127.314 149.093 126.113 149.725 125.086C150.356 124.043 151.206 123.253 152.275 122.715C153.343 122.177 154.534 121.922 155.845 121.95C157.157 121.978 158.334 122.283 159.377 122.865C160.42 123.447 161.234 124.272 161.818 125.341C162.402 126.393 162.679 127.607 162.647 128.983C162.616 130.359 162.277 131.568 161.629 132.61C160.997 133.637 160.139 134.419 159.055 134.957C157.986 135.494 156.796 135.749 155.485 135.722ZM155.565 132.17C156.349 132.187 157.019 131.913 157.576 131.349C158.149 130.785 158.448 129.967 158.472 128.895C158.497 127.823 158.243 126.994 157.713 126.406C157.198 125.819 156.548 125.518 155.765 125.501C154.965 125.484 154.294 125.758 153.753 126.323C153.213 126.872 152.93 127.69 152.906 128.778C152.881 129.849 153.118 130.679 153.617 131.265C154.132 131.852 154.781 132.154 155.565 132.17ZM170.067 122.25C171.011 122.27 171.831 122.479 172.526 122.878C173.237 123.277 173.777 123.792 174.147 124.424L174.19 122.529L178.293 122.615L177.99 135.98C177.962 137.211 177.689 138.318 177.17 139.299C176.667 140.297 175.905 141.081 174.884 141.651C173.879 142.222 172.633 142.492 171.145 142.461C169.161 142.419 167.564 141.913 166.354 140.944C165.143 139.99 164.468 138.711 164.329 137.108L168.384 137.194C168.5 137.708 168.795 138.114 169.268 138.412C169.741 138.727 170.33 138.891 171.034 138.906C171.881 138.924 172.559 138.69 173.066 138.204C173.589 137.735 173.862 136.965 173.887 135.893L173.93 133.998C173.516 134.613 172.952 135.113 172.239 135.498C171.527 135.867 170.698 136.042 169.755 136.022C168.651 135.999 167.658 135.698 166.774 135.119C165.892 134.524 165.198 133.702 164.694 132.651C164.206 131.584 163.978 130.363 164.009 128.988C164.04 127.612 164.323 126.41 164.859 125.381C165.41 124.352 166.14 123.567 167.049 123.026C167.957 122.485 168.964 122.226 170.067 122.25ZM174.038 129.223C174.061 128.199 173.792 127.385 173.229 126.781C172.683 126.178 172.002 125.867 171.186 125.85C170.37 125.833 169.668 126.114 169.078 126.694C168.505 127.258 168.207 128.052 168.184 129.076C168.161 130.099 168.422 130.921 168.968 131.541C169.531 132.145 170.22 132.455 171.036 132.472C171.851 132.49 172.546 132.208 173.119 131.628C173.709 131.048 174.015 130.247 174.038 129.223ZM187.048 136.387C185.736 136.359 184.559 136.054 183.516 135.472C182.489 134.89 181.683 134.073 181.099 133.02C180.531 131.968 180.262 130.746 180.294 129.355C180.325 127.979 180.656 126.778 181.288 125.751C181.92 124.708 182.77 123.918 183.838 123.38C184.907 122.842 186.097 122.587 187.409 122.615C188.72 122.643 189.898 122.948 190.941 123.53C191.984 124.112 192.797 124.937 193.381 126.006C193.965 127.058 194.242 128.272 194.211 129.648C194.179 131.024 193.84 132.233 193.192 133.275C192.561 134.302 191.703 135.084 190.618 135.622C189.55 136.159 188.36 136.414 187.048 136.387ZM187.129 132.835C187.912 132.852 188.583 132.578 189.14 132.014C189.713 131.45 190.011 130.632 190.036 129.56C190.06 128.488 189.807 127.659 189.276 127.071C188.761 126.484 188.112 126.183 187.328 126.166C186.528 126.149 185.858 126.423 185.317 126.988C184.776 127.537 184.494 128.355 184.469 129.443C184.445 130.514 184.682 131.344 185.181 131.93C185.695 132.517 186.345 132.819 187.129 132.835Z" fill="white"/>
<rect x="690" y="5" width="750" height="1024" fill="#FBFBFB"/>
<rect width="1440" height="1024" fill="white" fill-opacity="0.33"/>
<g clip-path="url(#clip1_827_7894)">
<rect width="1678" height="1024" fill="#FBFBFB"/>
<circle cx="106.5" cy="167.5" r="302.5" fill="#A0D7E7"/>
<circle cx="1116.5" cy="945.5" r="302.5" fill="#A0D7E7"/>
<ellipse cx="183.5" cy="642.5" rx="92.5" ry="90.5" fill="#B2E2D7"/>
<circle cx="997" cy="116" r="50" fill="#B2E2D7"/>
<rect width="896.676" height="102.855" rx="51.4274" transform="matrix(0.919658 -0.392721 0.423818 0.905747 1058 282.143)" fill="#FFE79A"/>
<rect width="896.676" height="102.855" rx="51.4274" transform="matrix(0.919658 -0.392721 0.423818 0.905747 1116.89 407.99)" fill="#FFE79A"/>
<rect width="896.676" height="102.855" rx="51.4274" transform="matrix(0.919658 -0.392721 0.423818 0.905747 1175.77 533.84)" fill="#FFE79A"/>
</g>
</g>
<defs>
<clipPath id="clip0_827_7894">
<rect width="1678" height="1024" fill="white"/>
</clipPath>
<clipPath id="clip1_827_7894">
<rect width="1678" height="1024" fill="white"/>
</clipPath>
</defs>
</svg>
