<svg width="151" height="92" viewBox="0 0 151 92" fill="none" xmlns="http://www.w3.org/2000/svg">
<path d="M75.5 0.603516C81.3403 0.603516 86.9414 2.92356 91.0711 7.05327C95.2008 11.183 97.5208 16.7841 97.5208 22.6243C97.5208 28.4646 95.2008 34.0657 91.0711 38.1954C86.9414 42.3251 81.3403 44.6452 75.5 44.6452C69.6597 44.6452 64.0586 42.3251 59.9289 38.1954C55.7992 34.0657 53.4792 28.4646 53.4792 22.6243C53.4792 16.7841 55.7992 11.183 59.9289 7.05327C64.0586 2.92356 69.6597 0.603516 75.5 0.603516ZM31.4583 16.3327C34.9817 16.3327 38.2533 17.2764 41.0846 18.9752C40.1408 27.9723 42.7833 36.9064 48.1942 43.8902C45.0483 49.9302 38.7567 54.0827 31.4583 54.0827C26.4524 54.0827 21.6514 52.0941 18.1117 48.5543C14.5719 45.0146 12.5833 40.2136 12.5833 35.2077C12.5833 30.2017 14.5719 25.4008 18.1117 21.861C21.6514 18.3213 26.4524 16.3327 31.4583 16.3327ZM119.542 16.3327C124.548 16.3327 129.349 18.3213 132.888 21.861C136.428 25.4008 138.417 30.2017 138.417 35.2077C138.417 40.2136 136.428 45.0146 132.888 48.5543C129.349 52.0941 124.548 54.0827 119.542 54.0827C112.243 54.0827 105.952 49.9302 102.806 43.8902C108.291 36.8084 110.838 27.8854 109.915 18.9752C112.747 17.2764 116.018 16.3327 119.542 16.3327ZM34.6042 80.8223C34.6042 67.7985 52.9129 57.2285 75.5 57.2285C98.0871 57.2285 116.396 67.7985 116.396 80.8223V91.8327H34.6042V80.8223ZM0 91.8327V82.3952C0 73.6498 11.8912 66.2885 27.9979 64.1494C24.2858 68.4277 22.0208 74.3419 22.0208 80.8223V91.8327H0ZM151 91.8327H128.979V80.8223C128.979 74.3419 126.714 68.4277 123.002 64.1494C139.109 66.2885 151 73.6498 151 82.3952V91.8327Z" fill="#106EE8"/>
</svg>
