<svg width="129" height="107" viewBox="0 0 129 107" fill="none" xmlns="http://www.w3.org/2000/svg">
<path d="M18.6248 60.7274V77.9386C18.6248 82.4099 21.0748 86.5749 24.9948 88.7186L55.6198 105.44C59.2948 107.461 63.7048 107.461 67.3798 105.44L98.0048 88.7186C101.925 86.5749 104.375 82.4099 104.375 77.9386V60.7274L67.3798 80.9399C63.7048 82.9611 59.2948 82.9611 55.6198 80.9399L18.6248 60.7274ZM55.6198 1.55984L3.98609 29.7348C-0.240156 32.0623 -0.240156 38.1874 3.98609 40.5149L55.6198 68.6899C59.2948 70.7111 63.7048 70.7111 67.3798 68.6899L116.625 41.8011V77.9999C116.625 81.3686 119.381 84.1249 122.75 84.1249C126.119 84.1249 128.875 81.3686 128.875 77.9999V38.7386C128.875 36.4724 127.65 34.4511 125.69 33.3486L67.3798 1.55984C65.5702 0.594696 63.5508 0.0898438 61.4998 0.0898438C59.4489 0.0898438 57.4295 0.594696 55.6198 1.55984Z" fill="#106EE8"/>
</svg>
